<?xml version="1.0" encoding="utf-8"?>
<!-- Generator: Adobe Illustrator 19.2.0, SVG Export Plug-In . SVG Version: 6.00 Build 0)  -->
<!DOCTYPE svg PUBLIC "-//W3C//DTD SVG 1.1//EN" "http://www.w3.org/Graphics/SVG/1.1/DTD/svg11.dtd">
<svg version="1.1" id="Vrstva_1" xmlns="http://www.w3.org/2000/svg" xmlns:xlink="http://www.w3.org/1999/xlink" x="0px" y="0px"
	 width="16px" height="16px" viewBox="0 0 16 16" enable-background="new 0 0 16 16" xml:space="preserve">
<g>
	<path fill="#404040" d="M8,8c0.5,0,1-0.4,1-1V1c0-0.5-0.4-1-1-1c-0.5,0-1,0.5-1,1v6C7.1,7.6,7.5,8,8,8z"/>
	<path fill="#404040" d="M11,1.7V4c1.2,0.9,2,2.3,2,4c0,2.8-2.2,5-5,5c-2.8,0-5-2.2-5-5c0-1.7,0.8-3.2,2.1-4.1V1.6
		C2.7,2.7,1,5.2,1,8c0,3.9,3.1,7,7,7c3.9,0,7-3.1,7-7C15,5.2,13.4,2.8,11,1.7z"/>
</g>
</svg>
