<?xml version="1.0" encoding="utf-8"?>
<!-- Generator: Adobe Illustrator 19.2.0, SVG Export Plug-In . SVG Version: 6.00 Build 0)  -->
<!DOCTYPE svg PUBLIC "-//W3C//DTD SVG 1.1//EN" "http://www.w3.org/Graphics/SVG/1.1/DTD/svg11.dtd">
<svg version="1.1" id="Vrstva_1" xmlns="http://www.w3.org/2000/svg" xmlns:xlink="http://www.w3.org/1999/xlink" x="0px" y="0px"
	 width="16px" height="16px" viewBox="0 0 16 16" enable-background="new 0 0 16 16" xml:space="preserve">
<g>
	<path fill="#404040" d="M2.4,6.6c0.5-2.5,2.8-4.3,5.4-4.3c1,0,1.9,0.3,2.8,0.7c0.2,0.1,0.4,0.3,0.6,0.4L9,5.5l6,1l-1-6l-1.2,1.3
		c-0.2-0.2-0.4-0.3-0.6-0.4C10.9,0.5,9.4,0,7.8,0C4,0,0.8,2.7,0.1,6.4L0,7h2.3L2.4,6.6z"/>
	<path fill="#404040" d="M12.6,8.9c-0.5,2.5-2.8,4.3-5.4,4.3c-1,0-1.9-0.3-2.8-0.7c-0.2-0.1-0.4-0.3-0.6-0.4L6,10L0,9l1,6l1.2-1.3
		c0.2,0.2,0.4,0.3,0.6,0.4c1.3,0.9,2.8,1.3,4.4,1.3c3.8,0,7-2.7,7.7-6.4L15,8.5h-2.3L12.6,8.9z"/>
</g>
</svg>
