<?xml version="1.0" encoding="utf-8"?>
<!-- Generator: Adobe Illustrator 19.2.0, SVG Export Plug-In . SVG Version: 6.00 Build 0)  -->
<!DOCTYPE svg PUBLIC "-//W3C//DTD SVG 1.1//EN" "http://www.w3.org/Graphics/SVG/1.1/DTD/svg11.dtd">
<svg version="1.1" id="Vrstva_1" xmlns="http://www.w3.org/2000/svg" xmlns:xlink="http://www.w3.org/1999/xlink" x="0px" y="0px"
	 width="48px" height="48px" viewBox="0 0 48 48" enable-background="new 0 0 48 48" xml:space="preserve">
<g>
	<path fill="#404040" d="M24.6,27.5c-2.7-1.1-3.4-1.5-3.4-1.5l0-2.6c0,0,1-0.8,1.4-3.3c0.6,0.2,1.3-1,1.4-1.6c0-0.6-0.1-2.2-0.9-2
		c0.2-1.2,0.3-2.3,0.2-2.9C23,11.4,21,9.2,17.7,9.2c-3.2,0-5.3,2.2-5.5,4.3c-0.1,0.6,0.1,1.7,0.2,2.9c-0.8-0.2-0.9,1.5-0.9,2
		c0,0.6,0.7,1.7,1.4,1.6c0.3,2.5,1.3,3.3,1.3,3.3l0,2.6c0,0-0.7,0.4-3.4,1.5c-2.7,1.1-5.5,1.9-6.3,3.2C3.8,31.8,4,39,4,39h27.4
		c0,0,0.2-7.2-0.5-8.3C30.1,29.4,27.4,28.6,24.6,27.5z"/>
	<path fill="#404040" d="M43.5,31.5c-0.7-1.2-0.7-1.9-3.2-2.9c-2.5-1-3.1-1.4-3.1-1.4l0-2.4c0,0,0.9-0.7,1.2-2.9
		c0.6,0.2,1.2-0.9,1.2-1.4c0-0.5-0.1-2-0.8-1.8c0.1-1.1,0.2-2.1,0.2-2.6c-0.2-1.9-2.1-3.9-4.9-3.9c-2.9,0-4.7,2-4.9,3.9
		c0,0.5,0.1,1.5,0.2,2.6c-0.7-0.1-0.8,1.3-0.8,1.8c0,0.5,0.6,1.6,1.2,1.4c0.3,2.2,1.2,2.9,1.2,2.9l-0.8,0.6c2.3,1.1,4.8,2.6,4.8,4.2
		V39H44C44,39,44.2,32.6,43.5,31.5z"/>
</g>
</svg>
