<?xml version="1.0" encoding="utf-8"?>
<!-- Generator: Adobe Illustrator 19.2.0, SVG Export Plug-In . SVG Version: 6.00 Build 0)  -->
<!DOCTYPE svg PUBLIC "-//W3C//DTD SVG 1.1//EN" "http://www.w3.org/Graphics/SVG/1.1/DTD/svg11.dtd">
<svg version="1.1" id="Vrstva_1" xmlns="http://www.w3.org/2000/svg" xmlns:xlink="http://www.w3.org/1999/xlink" x="0px" y="0px"
	 width="48px" height="48px" viewBox="0 0 48 48" enable-background="new 0 0 48 48" xml:space="preserve">
<g>
	<path fill="#FFFFFF" d="M27.8,26.9h-3.1c-0.2-0.6-0.4-1.1-0.8-1.7l2-2c0.5-0.5,0.5-1.2,0-1.7l-0.9-0.9c-0.5-0.5-1.3-0.5-1.7,0
		l-2.1,2.1c-0.6-0.3-1.2-0.6-1.8-0.7v-2.7c0-0.7-0.5-1.2-1.2-1.2h-1.2c-0.7,0-1.2,0.5-1.2,1.2v2.7c-0.7,0.2-1.4,0.5-2,0.8L12.2,21
		c-0.5-0.5-1.3-0.5-1.7,0l-0.9,0.9c-0.5,0.5-0.5,1.3,0,1.7l1.8,1.8c-0.4,0.6-0.7,1.4-0.8,2.1H8.2C7.5,27.5,7,28,7,28.7v1.2
		c0,0.7,0.5,1.2,1.2,1.2h2.5c0.2,0.7,0.6,1.4,1,2L10,34.8c-0.5,0.5-0.5,1.3,0,1.7l0.9,0.9c0.5,0.5,1.3,0.5,1.7,0l1.9-1.9
		c0.6,0.3,1.3,0.5,2,0.7v2.6c0,0.7,0.5,1.2,1.2,1.2h1.2c0.7,0,1.2-0.5,1.2-1.2v-2.9c0.6-0.2,1.2-0.5,1.7-0.9l2,2
		c0.5,0.5,1.2,0.5,1.7,0l0.9-0.9c0.5-0.5,0.5-1.2,0-1.7l-2.2-2.2c0.3-0.5,0.5-1.1,0.6-1.7h2.9c0.7,0,1.2-0.5,1.2-1.2v-1.2
		C29,27.4,28.5,26.9,27.8,26.9z M17.7,32.1c-1.7,0-3.1-1.4-3.1-3.1c0-1.7,1.4-3.1,3.1-3.1c1.7,0,3.1,1.4,3.1,3.1
		C20.8,30.7,19.4,32.1,17.7,32.1z"/>
	<path fill="#FFFFFF" d="M38.2,13.6h-2c-0.1-0.4-0.3-0.7-0.5-1.1l1.3-1.3c0.3-0.3,0.3-0.8,0-1.1l-0.5-0.5c-0.3-0.3-0.8-0.3-1.1,0
		L34.1,11c-0.4-0.2-0.7-0.4-1.2-0.5V8.8C33,8.4,32.6,8,32.2,8h-0.8c-0.4,0-0.8,0.4-0.8,0.8v1.7c-0.4,0.1-0.9,0.3-1.2,0.5l-1.1-1.1
		c-0.3-0.3-0.8-0.3-1.1,0l-0.6,0.5c-0.3,0.3-0.3,0.8,0,1.1l1.1,1.1c-0.2,0.4-0.4,0.9-0.5,1.3h-1.5c-0.4,0-0.8,0.3-0.8,0.8v0.8
		c0,0.4,0.3,0.8,0.8,0.8h1.6c0.1,0.5,0.4,0.9,0.6,1.3l-1.1,1.1c-0.3,0.3-0.3,0.8,0,1.1l0.5,0.5c0.3,0.3,0.8,0.3,1.1,0l1.2-1.2
		c0.4,0.2,0.8,0.3,1.3,0.4v1.6c0,0.4,0.3,0.8,0.8,0.8h0.8c0.4,0,0.8-0.4,0.8-0.8v-1.8c0.4-0.1,0.8-0.3,1.1-0.6l1.3,1.3
		c0.3,0.3,0.8,0.3,1.1,0l0.5-0.6c0.3-0.3,0.3-0.8,0-1.1L36,17.1c0.2-0.3,0.3-0.7,0.4-1.1h1.9c0.4,0,0.8-0.3,0.8-0.8v-0.8
		C39,14,38.7,13.6,38.2,13.6z M31.8,16.9c-1.1,0-1.9-0.9-1.9-1.9s0.9-1.9,1.9-1.9c1.1,0,1.9,0.9,1.9,1.9S32.9,16.9,31.8,16.9z"/>
</g>
</svg>
