<?xml version="1.0" encoding="utf-8"?>
<!-- Generator: Adobe Illustrator 19.2.0, SVG Export Plug-In . SVG Version: 6.00 Build 0)  -->
<!DOCTYPE svg PUBLIC "-//W3C//DTD SVG 1.1//EN" "http://www.w3.org/Graphics/SVG/1.1/DTD/svg11.dtd">
<svg version="1.1" id="Vrstva_1" xmlns="http://www.w3.org/2000/svg" xmlns:xlink="http://www.w3.org/1999/xlink" x="0px" y="0px"
	 width="48px" height="48px" viewBox="0 0 48 48" enable-background="new 0 0 48 48" xml:space="preserve">
<path fill="#FFFFFF" d="M24,4C15.7,4,9,10.7,9,19c0,6.7,4.4,12.3,10.4,14.3L24,44l4.6-10.7C34.6,31.3,39,25.7,39,19
	C39,10.7,32.3,4,24,4z M30.5,26.5C28.8,28,26.5,29,24,29c-2.5,0-4.8-1-6.5-2.5C15.4,24.7,14,22,14,19c0-5.5,4.5-10,10-10
	c5.5,0,10,4.5,10,10C34,22,32.6,24.7,30.5,26.5z"/>
</svg>
