<?xml version="1.0" encoding="utf-8"?>
<!-- Generator: Adobe Illustrator 19.2.0, SVG Export Plug-In . SVG Version: 6.00 Build 0)  -->
<!DOCTYPE svg PUBLIC "-//W3C//DTD SVG 1.1//EN" "http://www.w3.org/Graphics/SVG/1.1/DTD/svg11.dtd">
<svg version="1.1" id="Vrstva_1" xmlns="http://www.w3.org/2000/svg" xmlns:xlink="http://www.w3.org/1999/xlink" x="0px" y="0px"
	 width="16px" height="16px" viewBox="0 0 16 16" enable-background="new 0 0 16 16" xml:space="preserve">
<g>
	<path fill="#404040" d="M11,14H2V5h4.5l2-2H1.8C0.8,3,0,3.8,0,4.8v9.5c0,1,0.8,1.8,1.8,1.8h9.5c1,0,1.8-0.8,1.8-1.8V7l-2,2V14z"/>
	<polygon fill="#404040" points="4.6,8.3 3.6,12.3 7.6,11.3 	"/>
	<polygon fill="#404040" points="11,1.9 10,3 8,5 5.4,7.6 8.2,10.4 11,7.6 13,5.6 13.9,4.8 	"/>
	<path fill="#404040" d="M15.7,1.7l-1.4-1.4c-0.4-0.4-1-0.4-1.4,0L12.2,1L15,3.8l0.7-0.7C16.1,2.7,16.1,2.1,15.7,1.7z"/>
</g>
</svg>
