<?xml version="1.0" encoding="utf-8"?>
<!-- Generator: Adobe Illustrator 19.2.0, SVG Export Plug-In . SVG Version: 6.00 Build 0)  -->
<!DOCTYPE svg PUBLIC "-//W3C//DTD SVG 1.1//EN" "http://www.w3.org/Graphics/SVG/1.1/DTD/svg11.dtd">
<svg version="1.1" id="Vrstva_1" xmlns="http://www.w3.org/2000/svg" xmlns:xlink="http://www.w3.org/1999/xlink" x="0px" y="0px"
	 width="16px" height="16px" viewBox="0 0 16 16" enable-background="new 0 0 16 16" xml:space="preserve">
<path fill="#404040" d="M14,6h0.5C14.8,6,15,5.8,15,5.5C15,5.2,14.8,5,14.5,5H8.6L8,0L7.4,5H1.5C1.2,5,1,5.2,1,5.5
	C1,5.8,1.2,6,1.5,6H2l-2,6c0,1.7,1.3,3,3,3s3-1.3,3-3L4,6h3.2L7,7c0,0.6,0.4,1,1,1c0.6,0,1-0.4,1-1L8.8,6H12l-2,6c0,1.7,1.3,3,3,3
	s3-1.3,3-3L14,6z M5,12H1l2-6L5,12z M11,12l2-6l2,6H11z"/>
</svg>
