<?xml version="1.0" encoding="utf-8"?>
<!-- Generator: Adobe Illustrator 19.1.0, SVG Export Plug-In . SVG Version: 6.00 Build 0)  -->
<!DOCTYPE svg PUBLIC "-//W3C//DTD SVG 1.1//EN" "http://www.w3.org/Graphics/SVG/1.1/DTD/svg11.dtd">
<svg version="1.1" id="Vrstva_1" xmlns="http://www.w3.org/2000/svg" xmlns:xlink="http://www.w3.org/1999/xlink" x="0px" y="0px"
	 width="16px" height="16px" viewBox="0 0 16 16" enable-background="new 0 0 16 16" xml:space="preserve">
<g>
	<path fill="#FFFFFF" d="M9,2V1H8v1C6.5,2.3,5.3,3.5,5.1,5h6.9C11.7,3.5,10.5,2.3,9,2z"/>
	<path fill="#FFFFFF" d="M14,6l-2,2V6H5v2L3,6L1,8v7h3v1h9v-1h3V8L14,6z M12,15h-1v-5h-1v5H9v-5H8v5H7v-5H6v5H5v-5l3.5-3l3.5,3V15z"
		/>
	<circle fill="#FFFFFF" cx="3" cy="5" r="1"/>
	<circle fill="#FFFFFF" cx="14" cy="5" r="1"/>
</g>
</svg>
