<?xml version="1.0" encoding="utf-8"?>
<!-- Generator: Adobe Illustrator 19.1.0, SVG Export Plug-In . SVG Version: 6.00 Build 0)  -->
<!DOCTYPE svg PUBLIC "-//W3C//DTD SVG 1.1//EN" "http://www.w3.org/Graphics/SVG/1.1/DTD/svg11.dtd">
<svg version="1.1" id="Vrstva_1" xmlns="http://www.w3.org/2000/svg" xmlns:xlink="http://www.w3.org/1999/xlink" x="0px" y="0px"
	 width="16px" height="16px" viewBox="0 0 16 16" enable-background="new 0 0 16 16" xml:space="preserve">
<g>
	<path fill="#FFFFFF" d="M11,8L8.5,4L6,8H1v7h3v1h9v-1h3V8H11z M3,13H2v-1h1V13z M3,11H2v-1h1V11z M5,13H4v-1h1V13z M5,11H4v-1h1V11
		z M9,14H8v-4h1V14z M13,13h-1v-1h1V13z M13,11h-1v-1h1V11z M15,13h-1v-1h1V13z M15,11h-1v-1h1V11z"/>
	<polygon fill="#FFFFFF" points="9,2 10,2 10,1 9,1 9,0 8,0 8,1 7,1 7,2 8,2 8,4 8.5,4 9,4 	"/>
</g>
</svg>
