<?xml version="1.0" encoding="utf-8"?>
<!-- Generator: Adobe Illustrator 19.1.0, SVG Export Plug-In . SVG Version: 6.00 Build 0)  -->
<!DOCTYPE svg PUBLIC "-//W3C//DTD SVG 1.1//EN" "http://www.w3.org/Graphics/SVG/1.1/DTD/svg11.dtd">
<svg version="1.1" id="Vrstva_1" xmlns="http://www.w3.org/2000/svg" xmlns:xlink="http://www.w3.org/1999/xlink" x="0px" y="0px"
	 width="16px" height="16px" viewBox="0 0 16 16" enable-background="new 0 0 16 16" xml:space="preserve">
<g>
	<path fill="#FFFFFF" d="M5.8,3.1c0.9,0.4,2.9,0.7,4.5,0.7c0.3,0,0.7,0,0.7,0C11,1.8,11,0,11,0h-0.4c-1.1,0.5-3.4,0.8-5,0.8
		C4,0.8,1.7,0.5,0.6,0H0c0,0,0,4,0,6.4C0,8.2,2.2,11,4,12c0-1,0-9,0-9h1.6L5.8,3.1z"/>
	<path fill="#FFFFFF" d="M15.4,4c-1.1,0.5-3.4,0.8-5,0.8c-1.6,0-3.9-0.3-5-0.8H5c0,0,0,4,0,6.4S8.9,16,10.5,16s5.5-3.2,5.5-5.6
		S16,4,16,4H15.4z M8,6c0.6,0,1,0.7,1,1.5C9,8.3,8.6,9,8,9C7.4,9,7,8.3,7,7.5C7,6.7,7.4,6,8,6z M10.4,12.8c-1.6,0-2.9-1-3.2-2.4
		c0.4,0.7,2.3,1.1,3.2,1.1c0.9,0,2.8-0.5,3.2-1.1C13.3,11.8,12,12.8,10.4,12.8z M13,9c-0.6,0-1-0.7-1-1.5C12,6.7,12.4,6,13,6
		c0.6,0,1,0.7,1,1.5C14,8.3,13.6,9,13,9z"/>
</g>
</svg>
