<?xml version="1.0" encoding="utf-8"?>
<!-- Generator: Adobe Illustrator 19.1.0, SVG Export Plug-In . SVG Version: 6.00 Build 0)  -->
<!DOCTYPE svg PUBLIC "-//W3C//DTD SVG 1.1//EN" "http://www.w3.org/Graphics/SVG/1.1/DTD/svg11.dtd">
<svg version="1.1" id="Vrstva_1" xmlns="http://www.w3.org/2000/svg" xmlns:xlink="http://www.w3.org/1999/xlink" x="0px" y="0px"
	 width="16px" height="16px" viewBox="0 0 16 16" enable-background="new 0 0 16 16" xml:space="preserve">
<path fill="#FFFFFF" d="M15,15v-4l-2-1v5h-1V8L9,4V2h1V1H9V0H8v1H7v1h1v2L5,8v7H4v-5l-2,1v4H1v1h15v-1H15z M8,15H7v-5h1V15z M10,15
	H9v-5h1V15z M8.5,9C7.7,9,7,8.3,7,7.5S7.7,6,8.5,6S10,6.7,10,7.5S9.3,9,8.5,9z"/>
</svg>
