<?xml version="1.0" encoding="utf-8"?>
<!-- Generator: Adobe Illustrator 19.1.0, SVG Export Plug-In . SVG Version: 6.00 Build 0)  -->
<!DOCTYPE svg PUBLIC "-//W3C//DTD SVG 1.1//EN" "http://www.w3.org/Graphics/SVG/1.1/DTD/svg11.dtd">
<svg version="1.1" id="Vrstva_1" xmlns="http://www.w3.org/2000/svg" xmlns:xlink="http://www.w3.org/1999/xlink" x="0px" y="0px"
	 width="16px" height="16px" viewBox="0 0 16 16" enable-background="new 0 0 16 16" xml:space="preserve">
<g>
	<path fill="#FFFFFF" d="M8,3C6.2,2,3,2,3,2v9c0,0,3.2,0,5,1V3z"/>
	<path fill="#FFFFFF" d="M14,2c0,0-3.2,0-5,1v9c1.8-1,5-1,5-1V2z"/>
	<polygon fill="#FFFFFF" points="15,3 15,12.1 9,13 8,13 2,12.1 2,3 1,3 1,13 8,14 9,14 16,13 16,3 	"/>
</g>
</svg>
