<?xml version="1.0" encoding="utf-8"?>
<!-- Generator: Adobe Illustrator 19.1.0, SVG Export Plug-In . SVG Version: 6.00 Build 0)  -->
<!DOCTYPE svg PUBLIC "-//W3C//DTD SVG 1.1//EN" "http://www.w3.org/Graphics/SVG/1.1/DTD/svg11.dtd">
<svg version="1.1" id="Vrstva_1" xmlns="http://www.w3.org/2000/svg" xmlns:xlink="http://www.w3.org/1999/xlink" x="0px" y="0px"
	 width="16px" height="16px" viewBox="0 0 16 16" enable-background="new 0 0 16 16" xml:space="preserve">
<path fill="#FFFFFF" d="M14,9l-1-1V7h-1v1l-1,1H9V5L8,4V0H7v4L6,5v4H4L3,8V7H2v1L1,9H0v7h15V9H14z M2,14H1v-1h1V14z M2,12H1v-1h1V12
	z M4,14H3v-1h1V14z M4,12H3v-1h1V12z M6,14H5v-1h1V14z M6,12H5v-1h1V12z M10,14H9v-1h1V14z M10,12H9v-1h1V12z M12,14h-1v-1h1V14z
	 M12,12h-1v-1h1V12z M14,14h-1v-1h1V14z M14,12h-1v-1h1V12z"/>
</svg>
