<?xml version="1.0" encoding="utf-8"?>
<!-- Generator: Adobe Illustrator 19.1.0, SVG Export Plug-In . SVG Version: 6.00 Build 0)  -->
<!DOCTYPE svg PUBLIC "-//W3C//DTD SVG 1.1//EN" "http://www.w3.org/Graphics/SVG/1.1/DTD/svg11.dtd">
<svg version="1.1" id="Vrstva_1" xmlns="http://www.w3.org/2000/svg" xmlns:xlink="http://www.w3.org/1999/xlink" x="0px" y="0px"
	 width="16px" height="16px" viewBox="0 0 16 16" enable-background="new 0 0 16 16" xml:space="preserve">
<g>
	<path fill="#FFFFFF" d="M15,6V4h-3v2h-1v2H7V6H6V2H4V0H3v2H1v4H0v10h16V6H15z M5,3v1H4V3H5z M2,3h1v1H2V3z M2,14H1v-1h1V14z M2,12
		H1v-1h1V12z M2,10H1V9h1V10z M2,8H1V7h1V8z M2,5h1v1H2V5z M4,14H3v-1h1V14z M4,12H3v-1h1V12z M4,10H3V9h1V10z M4,8H3V7h1V8z M4,5h1
		v1H4V5z M6,14H5v-1h1V14z M6,12H5v-1h1V12z M6,10H5V9h1V10z M6,8H5V7h1V8z M10,14H9v-1h1V14z M10,12H9v-1h1V12z M10,10H9V9h1V10z
		 M13,14h-1v-1h1V14z M13,12h-1v-1h1V12z M13,10h-1V9h1V10z M13,8h-1V7h1V8z M13,5h1v1h-1V5z M15,14h-1v-1h1V14z M15,12h-1v-1h1V12z
		 M15,10h-1V9h1V10z M15,8h-1V7h1V8z"/>
</g>
</svg>
