<?xml version="1.0" encoding="utf-8"?>
<!-- Generator: Adobe Illustrator 19.2.0, SVG Export Plug-In . SVG Version: 6.00 Build 0)  -->
<!DOCTYPE svg PUBLIC "-//W3C//DTD SVG 1.1//EN" "http://www.w3.org/Graphics/SVG/1.1/DTD/svg11.dtd">
<svg version="1.1" id="Vrstva_1" xmlns="http://www.w3.org/2000/svg" xmlns:xlink="http://www.w3.org/1999/xlink" x="0px" y="0px"
	 width="16px" height="16px" viewBox="0 0 16 16" enable-background="new 0 0 16 16" xml:space="preserve">
<path fill="#FFFFFF" d="M15,15v-1l-2-1v2h-1l-2-4V3V2H9V0H8v2H7v1v8l-2,4H4l0-2l-2,1l0,1H1v1h15v-1H15z M9,12H8v-1h1V12z M9,10H8V9
	h1V10z M9,8H8V7h1V8z M9,6H8V5h1V6z M9,4H8V3h1V4z"/>
</svg>
