<?xml version="1.0" encoding="utf-8"?>
<!-- Generator: Adobe Illustrator 19.1.0, SVG Export Plug-In . SVG Version: 6.00 Build 0)  -->
<!DOCTYPE svg PUBLIC "-//W3C//DTD SVG 1.1//EN" "http://www.w3.org/Graphics/SVG/1.1/DTD/svg11.dtd">
<svg version="1.1" id="Vrstva_1" xmlns="http://www.w3.org/2000/svg" xmlns:xlink="http://www.w3.org/1999/xlink" x="0px" y="0px"
	 width="16px" height="16px" viewBox="0 0 16 16" enable-background="new 0 0 16 16" xml:space="preserve">
<path fill="#FFFFFF" d="M15,15v-4l-2-1v5h-1V3h-2V1H9V0H8v1H7v2H5v12H4v-5l-2,1v4H1v1h15v-1H15z M8,14H7v-1h1V14z M8,12H7v-1h1V12z
	 M8,10H7V9h1V10z M8,8H7V7h1V8z M8,6H7V5h1V6z M10,14H9v-1h1V14z M10,12H9v-1h1V12z M10,10H9V9h1V10z M10,8H9V7h1V8z M10,6H9V5h1V6z
	"/>
</svg>
