<?xml version="1.0" encoding="utf-8"?>
<!-- Generator: Adobe Illustrator 19.1.0, SVG Export Plug-In . SVG Version: 6.00 Build 0)  -->
<!DOCTYPE svg PUBLIC "-//W3C//DTD SVG 1.1//EN" "http://www.w3.org/Graphics/SVG/1.1/DTD/svg11.dtd">
<svg version="1.1" id="Vrstva_1" xmlns="http://www.w3.org/2000/svg" xmlns:xlink="http://www.w3.org/1999/xlink" x="0px" y="0px"
	 width="16px" height="16px" viewBox="0 0 16 16" enable-background="new 0 0 16 16" xml:space="preserve">
<g>
	<path fill="#FFFFFF" d="M13.5,5l-1.1,3H2.6L1.5,5L0,9v7h3v-1h9v1h3V9L13.5,5z M5,13H4V9h1V13z M8,13H7V9h1V13z M11,13h-1V9h1V13z"
		/>
	<path fill="#FFFFFF" d="M7.5,3c-3,0-3.9,1.2-4.4,4h8.8C11.4,4.2,10.5,3,7.5,3z"/>
	<circle fill="#FFFFFF" cx="7.5" cy="1" r="1"/>
	<circle fill="#FFFFFF" cx="1.5" cy="3" r="1"/>
	<circle fill="#FFFFFF" cx="13.5" cy="3" r="1"/>
</g>
</svg>
