<?xml version="1.0" encoding="utf-8"?>
<!-- Generator: Adobe Illustrator 19.1.0, SVG Export Plug-In . SVG Version: 6.00 Build 0)  -->
<!DOCTYPE svg PUBLIC "-//W3C//DTD SVG 1.1//EN" "http://www.w3.org/Graphics/SVG/1.1/DTD/svg11.dtd">
<svg version="1.1" id="Vrstva_1" xmlns="http://www.w3.org/2000/svg" xmlns:xlink="http://www.w3.org/1999/xlink" x="0px" y="0px"
	 width="16px" height="16px" viewBox="0 0 16 16" enable-background="new 0 0 16 16" xml:space="preserve">
<g>
	<rect x="0" y="13" fill="#FFFFFF" width="3" height="3"/>
	<rect x="5" y="8" fill="#FFFFFF" width="6" height="4"/>
	<rect x="0" y="8" fill="#FFFFFF" width="4" height="4"/>
	<rect x="13" y="13" fill="#FFFFFF" width="3" height="3"/>
	<rect x="8" y="13" fill="#FFFFFF" width="4" height="3"/>
	<path fill="#FFFFFF" d="M10,4V2c0-0.5-0.5-1-1-1H7C6.5,1,6,1.5,6,2v2H4V2c0-0.5-0.5-1-1-1H1C0.5,1,0,1.5,0,2v5h10L10,4z"/>
</g>
</svg>
