<?xml version="1.0" encoding="utf-8"?>
<!-- Generator: Adobe Illustrator 19.1.0, SVG Export Plug-In . SVG Version: 6.00 Build 0)  -->
<!DOCTYPE svg PUBLIC "-//W3C//DTD SVG 1.1//EN" "http://www.w3.org/Graphics/SVG/1.1/DTD/svg11.dtd">
<svg version="1.1" id="Vrstva_1" xmlns="http://www.w3.org/2000/svg" xmlns:xlink="http://www.w3.org/1999/xlink" x="0px" y="0px"
	 width="16px" height="16px" viewBox="0 0 16 16" enable-background="new 0 0 16 16" xml:space="preserve">
<path fill="#FFFFFF" d="M14.5,0h-1C13.2,0,13,0.2,13,0.5V2h-2V0.5C11,0.2,10.8,0,10.5,0h-1C9.2,0,9,0.2,9,0.5V2H7V0.5
	C7,0.2,6.8,0,6.5,0h-1C5.2,0,5,0.2,5,0.5V2H3V0.5C3,0.2,2.8,0,2.5,0h-1C1.2,0,1,0.2,1,0.5v4C1,4.8,1.2,5,1.5,5H3L2.1,15.5
	c0,0.1,0,0.3,0.1,0.4C2.3,15.9,2.4,16,2.5,16H7v-2c0-0.6,0.4-1,1-1c0.6,0,1,0.4,1,1v2h3.9c0.3,0,0.6-0.1,0.7-0.3
	c0.2-0.2,0.3-0.5,0.3-0.8L13,5h1.5C14.8,5,15,4.8,15,4.5v-4C15,0.2,14.8,0,14.5,0z"/>
</svg>
