<?xml version="1.0" encoding="utf-8"?>
<!-- Generator: Adobe Illustrator 19.1.0, SVG Export Plug-In . SVG Version: 6.00 Build 0)  -->
<!DOCTYPE svg PUBLIC "-//W3C//DTD SVG 1.1//EN" "http://www.w3.org/Graphics/SVG/1.1/DTD/svg11.dtd">
<svg version="1.1" id="Vrstva_1" xmlns="http://www.w3.org/2000/svg" xmlns:xlink="http://www.w3.org/1999/xlink" x="0px" y="0px"
	 width="16px" height="16px" viewBox="0 0 16 16" enable-background="new 0 0 16 16" xml:space="preserve">
<g>
	<polygon fill="#FFFFFF" points="12,7 8.5,7 12,10 12,15 11,15 11,10 10,10 10,15 9,15 9,10 8,10 8,15 7,15 7,10 6,10 6,15 5,15 
		5,10 8.5,7 5,7 1,7 1,15 4,15 4,16 13,16 13,15 16,15 16,7 	"/>
	<polygon fill="#FFFFFF" points="8.5,3 4,6 13,6 	"/>
</g>
</svg>
