<?xml version="1.0" encoding="utf-8"?>
<!-- Generator: Adobe Illustrator 19.1.0, SVG Export Plug-In . SVG Version: 6.00 Build 0)  -->
<!DOCTYPE svg PUBLIC "-//W3C//DTD SVG 1.1//EN" "http://www.w3.org/Graphics/SVG/1.1/DTD/svg11.dtd">
<svg version="1.1" id="Vrstva_1" xmlns="http://www.w3.org/2000/svg" xmlns:xlink="http://www.w3.org/1999/xlink" x="0px" y="0px"
	 width="20px" height="20px" viewBox="0 0 20 20" enable-background="new 0 0 20 20" xml:space="preserve">
<g>
	<circle fill="#404040" cx="10" cy="3" r="3"/>
	<path fill="#404040" d="M17.9,11l-4.5-3.6C13,7.2,12.6,7,12,7h-2h0H8c-0.6,0-1,0.2-1.4,0.5L2.1,11c-1.2,1,0.2,2.2,1.4,1.2L6,10.1
		V12h4h0h3v-1.9l3,2.2C17.1,13.2,19.1,12,17.9,11z"/>
	<path fill="#404040" d="M13.5,13.2l-2.7,2.1l1.9,1.5l-2,1.6c-1.2,0.9,0.4,2.3,1.7,1.3l3.2-2.6c0.7-0.5,0.9-1.6,0.1-2.1
		C15.7,14.9,13.5,13.2,13.5,13.2z"/>
	<path fill="#404040" d="M9.2,18.4l-2-1.6l1.9-1.5l-2.7-2.1c0,0-2.3,1.8-2.3,1.8c-0.7,0.6-0.5,1.6,0.1,2.1l3.2,2.6
		C8.7,20.6,10.3,19.3,9.2,18.4z"/>
</g>
</svg>
