<?xml version="1.0" encoding="utf-8"?>
<!-- Generator: Adobe Illustrator 19.1.0, SVG Export Plug-In . SVG Version: 6.00 Build 0)  -->
<!DOCTYPE svg PUBLIC "-//W3C//DTD SVG 1.1//EN" "http://www.w3.org/Graphics/SVG/1.1/DTD/svg11.dtd">
<svg version="1.1" id="Vrstva_1" xmlns="http://www.w3.org/2000/svg" xmlns:xlink="http://www.w3.org/1999/xlink" x="0px" y="0px"
	 width="20px" height="20px" viewBox="0 0 20 20" enable-background="new 0 0 20 20" xml:space="preserve">
<g>
	<path fill="#404040" d="M11,6H8v4h3c1.1,0,2-0.9,2-2S12.1,6,11,6z"/>
	<path fill="#404040" d="M17.5,1H11h-1H2.5C2.2,1,2,1.2,2,1.5v17C2,18.8,2.2,19,2.5,19H10h1h6.5c0.3,0,0.5-0.2,0.5-0.5v-17
		C18,1.2,17.8,1,17.5,1z M11,12H8v4H6V4h5c2.2,0,4,1.8,4,4S13.2,12,11,12z"/>
</g>
</svg>
