<?xml version="1.0" encoding="utf-8"?>
<!-- Generator: Adobe Illustrator 19.1.0, SVG Export Plug-In . SVG Version: 6.00 Build 0)  -->
<!DOCTYPE svg PUBLIC "-//W3C//DTD SVG 1.1//EN" "http://www.w3.org/Graphics/SVG/1.1/DTD/svg11.dtd">
<svg version="1.1" id="Vrstva_1" xmlns="http://www.w3.org/2000/svg" xmlns:xlink="http://www.w3.org/1999/xlink" x="0px" y="0px"
	 width="20px" height="20px" viewBox="0 0 20 20" enable-background="new 0 0 20 20" xml:space="preserve">
<path fill="#404040" d="M18,12V8l-5.1,1.4c-0.1-0.4-0.2-0.8-0.5-1.1l4.6-2.6l-2.8-2.8l-2.6,4.6c-0.3-0.2-0.7-0.4-1.1-0.5L12,2H8
	l1.4,5.1C9,7.1,8.6,7.3,8.3,7.5L5.8,2.9L2.9,5.8l4.6,2.6C7.3,8.6,7.1,9,7.1,9.4L2,8v4l5.1-1.4c0.1,0.4,0.2,0.8,0.5,1.1l-4.6,2.6
	l2.8,2.8l2.6-4.6c0.3,0.2,0.7,0.4,1.1,0.5L8,18h4l-1.4-5.1c0.4-0.1,0.8-0.2,1.1-0.5l2.6,4.6l2.8-2.8l-4.6-2.6
	c0.2-0.3,0.4-0.7,0.5-1.1L18,12z"/>
</svg>
