<?xml version="1.0" encoding="utf-8"?>
<!-- Generator: Adobe Illustrator 19.1.0, SVG Export Plug-In . SVG Version: 6.00 Build 0)  -->
<!DOCTYPE svg PUBLIC "-//W3C//DTD SVG 1.1//EN" "http://www.w3.org/Graphics/SVG/1.1/DTD/svg11.dtd">
<svg version="1.1" id="Vrstva_1" xmlns="http://www.w3.org/2000/svg" xmlns:xlink="http://www.w3.org/1999/xlink" x="0px" y="0px"
	 width="20px" height="20px" viewBox="0 0 20 20" enable-background="new 0 0 20 20" xml:space="preserve">
<g>
	<path fill="#059747" d="M3,6.5C3,6.8,3.2,7,3.6,7C5.7,7,7.9,7,10,7s4.3,0,6.4,0C16.8,7,17,6.8,17,6.5c0-2.3,0-3.7,0-6
		C17,0.2,16.8,0,16.4,0C12.1,0,7.8,0,3.5,0C3.2,0,3,0.2,3,0.5C3,2.8,3,4.2,3,6.5z M5,1c0.6,0,1,0.4,1,1c0,0.6-0.4,1-1,1S4,2.6,4,2
		C4,1.5,4.4,1,5,1z"/>
	<path fill="#059747" d="M16.7,10.5c-0.2,0.1-0.4,0.3-0.6,0.4c-0.6,0.3-1.3,0.4-1.9,0.6c-1.5,0.3-3.1,0.4-4.7,0.3
		c-1.3,0-2.7-0.1-3.9-0.4c-0.7-0.1-1.3-0.3-1.9-0.6c-0.2-0.1-0.3-0.2-0.4-0.3c0,0-0.1,0-0.2-0.1c0,0,0,0.1,0,0.1
		c0,0.2,0.1,0.5,0.1,0.7c0.8,3.1,4.3,5.2,8.1,4.6c3-0.5,4.8-2,5.6-4.5c0.1-0.3,0.1-0.6,0.2-0.9c0,0,0,0-0.1,0
		C16.9,10.4,16.8,10.4,16.7,10.5z"/>
	<path fill="#059747" d="M13.3,16.3c-0.1,0-0.1,0-0.2,0.1c-1.7,0.8-4.4,0.7-6.1-0.1c-0.2-0.1-0.2-0.1-0.2,0.1c0,0.2-1.2,3-1.3,3.4
		c0,0.2,0.1,0.3,0.4,0.3c2.8,0,5.6,0,8.3,0c0.3,0,0.4-0.1,0.4-0.3C14.6,19.5,13.3,16.4,13.3,16.3C13.3,16.3,13.3,16.3,13.3,16.3z"/>
	<path fill="#059747" d="M14,8.5c-0.8-0.3-1.7-0.4-2.5-0.4C9.8,7.9,8.2,8,6.7,8.3c-0.5,0.1-1,0.2-1.4,0.5C4.9,9,4.9,9.3,5.3,9.6
		c0.1,0,0.1,0.1,0.2,0.1C5.8,9.8,6,9.9,6.3,10c1.2,0.3,2.5,0.4,4.2,0.4c0.5,0,1.4-0.1,2.3-0.2c0.6-0.1,1.1-0.2,1.6-0.4
		c0.2-0.1,0.3-0.2,0.4-0.3c0.2-0.2,0.2-0.4,0-0.6c-0.1-0.1-0.2-0.1-0.3-0.2C14.4,8.6,14.2,8.5,14,8.5z"/>
</g>
</svg>
