<?xml version="1.0" encoding="utf-8"?>
<!-- Generator: Adobe Illustrator 19.1.0, SVG Export Plug-In . SVG Version: 6.00 Build 0)  -->
<!DOCTYPE svg PUBLIC "-//W3C//DTD SVG 1.1//EN" "http://www.w3.org/Graphics/SVG/1.1/DTD/svg11.dtd">
<svg version="1.1" id="Vrstva_1" xmlns="http://www.w3.org/2000/svg" xmlns:xlink="http://www.w3.org/1999/xlink" x="0px" y="0px"
	 width="16px" height="16px" viewBox="0 0 16 16" enable-background="new 0 0 16 16" xml:space="preserve">
<g>
	<path fill="#FFFFFF" d="M9,4H7C5.9,4,5,4.9,5,6v4h1v6h4v-6h1V6C11,4.9,10.1,4,9,4z"/>
	<circle fill="#FFFFFF" cx="8" cy="1.5" r="1.5"/>
	<circle fill="#FFFFFF" cx="14" cy="3" r="1"/>
	<path fill="#FFFFFF" d="M15,5h-2c-0.5,0-1,0.5-1,1v4h1v4h2v-4h1V6C16,5.5,15.5,5,15,5z"/>
	<circle fill="#FFFFFF" cx="2" cy="3" r="1"/>
	<path fill="#FFFFFF" d="M3,5H1C0.5,5,0,5.5,0,6v4h1v4h2v-4h1V6C4,5.5,3.5,5,3,5z"/>
</g>
</svg>
