<?xml version="1.0" encoding="utf-8"?>
<!-- Generator: Adobe Illustrator 19.1.0, SVG Export Plug-In . SVG Version: 6.00 Build 0)  -->
<!DOCTYPE svg PUBLIC "-//W3C//DTD SVG 1.1//EN" "http://www.w3.org/Graphics/SVG/1.1/DTD/svg11.dtd">
<svg version="1.1" id="Vrstva_1" xmlns="http://www.w3.org/2000/svg" xmlns:xlink="http://www.w3.org/1999/xlink" x="0px" y="0px"
	 width="16px" height="16px" viewBox="0 0 16 16" enable-background="new 0 0 16 16" xml:space="preserve">
<path fill="#FFFFFF" d="M15.8,13.5L13,10.8c0.7-1.1,1.1-2.4,1.1-3.8c0-3.9-3.1-7-7-7s-7,3.1-7,7s3.1,7,7,7c1.4,0,2.7-0.4,3.8-1.1
	l2.8,2.8c0.2,0.2,0.5,0.2,0.7,0l1.4-1.4C15.9,14,15.9,13.7,15.8,13.5z M7.1,12c-2.8,0-5-2.2-5-5s2.2-5,5-5s5,2.2,5,5S9.9,12,7.1,12z
	"/>
</svg>
