<?xml version="1.0" encoding="utf-8"?>
<!-- Generator: Adobe Illustrator 19.1.0, SVG Export Plug-In . SVG Version: 6.00 Build 0)  -->
<!DOCTYPE svg PUBLIC "-//W3C//DTD SVG 1.1//EN" "http://www.w3.org/Graphics/SVG/1.1/DTD/svg11.dtd">
<svg version="1.1" id="Vrstva_1" xmlns="http://www.w3.org/2000/svg" xmlns:xlink="http://www.w3.org/1999/xlink" x="0px" y="0px"
	 width="16px" height="16px" viewBox="0 0 16 16" enable-background="new 0 0 16 16" xml:space="preserve">
<g>
	<polygon fill="#404040" points="2,2 5,2 5,1 2,1 1,1 1,2 1,5 2,5 	"/>
	<polygon fill="#404040" points="14,1 11,1 11,2 14,2 14,5 15,5 15,2 15,1 	"/>
	<polygon fill="#404040" points="2,11 1,11 1,14 1,15 2,15 5,15 5,14 2,14 	"/>
	<polygon fill="#404040" points="14,14 11,14 11,15 14,15 15,15 15,14 15,11 14,11 	"/>
	<rect x="3" y="3" fill="#404040" width="10" height="10"/>
</g>
</svg>
