<?xml version="1.0" encoding="utf-8"?>
<!-- Generator: Adobe Illustrator 19.1.0, SVG Export Plug-In . SVG Version: 6.00 Build 0)  -->
<!DOCTYPE svg PUBLIC "-//W3C//DTD SVG 1.1//EN" "http://www.w3.org/Graphics/SVG/1.1/DTD/svg11.dtd">
<svg version="1.1" id="Vrstva_1" xmlns="http://www.w3.org/2000/svg" xmlns:xlink="http://www.w3.org/1999/xlink" x="0px" y="0px"
	 width="16px" height="16px" viewBox="0 0 16 16" enable-background="new 0 0 16 16" xml:space="preserve">
<g>
	<path fill="#404040" d="M8,0C3.6,0,0,3.6,0,8s3.6,8,8,8s8-3.6,8-8S12.4,0,8,0z M11.2,11.5l-0.1,0.3l0-0.1c-0.4,0.3-0.3,1.1-0.8,1.3
		c-0.3,0.1-0.2-0.2-0.1-0.4c0.1-0.2-0.1-0.3,0-0.5l0,0l0,0v0c-0.1,0-0.2-0.2-0.2-0.4c0.1,0,0.2-0.1,0.2,0l0.1-0.3
		c0,0.2-0.2,0.5-0.1,0.7l0,0l0.1-0.1c0,0.1,0,0.2,0.1,0.3c-0.1-0.4,0.3-0.5,0.5-0.7c0.1-0.1,0.2-0.4,0.3-0.4L11.2,11.5L11.2,11.5z
		 M13.4,6.3c-0.2-0.3-0.3-0.7-0.5-0.9l0,0.2c-0.1,0-0.2-0.1-0.3-0.2c0-0.1,0.1,0.1,0.1-0.1c-0.2,0-0.4-0.2-0.5-0.3
		c-0.3,0-0.6,0.2-0.9,0c-0.1,0-0.1-0.3-0.2-0.1l-0.2,0c-0.3-0.1-0.5-0.4-0.8-0.4c0,0.1,0.2,0.3,0.3,0.4c0.1,0.1,0.2,0.4,0.2,0.1
		c0.2,0.1,0.1,0.4,0.3,0.3c0.2,0.1,0.2-0.3,0.2-0.4l0.2,0.3c0.1,0.1,0.3,0.1,0.4,0.2c0.1,0.1,0.2,0.3,0.2,0.5c-0.1,0,0,0.1-0.1,0.3
		c-0.1,0.1-0.1,0.2-0.1,0.3c-0.1,0-0.3,0.1-0.3,0.3c-0.1,0.1-1,0.8-1.1,0.6C10,7.1,10,6.8,9.9,6.6C9.7,6.5,9.3,6.1,9.3,5.9
		C9.3,5.6,8.5,5,8.4,5C8.5,5.4,8.9,5.6,9,5.9c0.1,0.3,0.4,0.9,0.6,1c0.3,0,0.6,0.6,0.8,0.7c0.2,0.2,0.7-0.4,1-0.3
		c0,0.3,0,0.4-0.1,0.7c-0.2,0.7-0.5,0.9-0.9,1.5C10.2,9.8,10,10,9.9,10.3c-0.1,0.3,0.3,0.8,0.1,1c0.1,0.4,0,0.7-0.4,0.9
		c-0.3,0.2-0.5,0.3-0.4,0.6c0.1,0.3-0.3,0.3-0.3,0.5c-0.1,0.3-0.3,0.4-0.5,0.5c-0.1,0-0.3,0-0.4,0c-0.2,0-0.5,0-0.7,0
		C7,13.4,6.7,13,6.4,12.7c-0.2-0.2-0.5-0.6-0.2-0.9c0-0.2-0.2-0.6-0.3-0.8C5.7,10.7,5,10.1,5.3,9.7c0-0.2-0.1-0.4-0.1-0.6
		C5,9,4.8,9.3,4.6,9C4.5,8.7,4.1,8.8,3.9,9L3.1,9.1C2.5,8.6,2.3,7.9,2.5,7.2c0.1-0.3,0.1-0.8,0.3-0.9C2.9,6,3.2,5.7,3.4,5.5
		c0.1-0.1,0.2-0.1,0.3-0.3C3.9,5,4,4.8,4.2,4.6c0.2-0.2,0.7-0.5,0.3-0.5C4.6,3.9,4.9,3.7,5,3.4c0.1-0.1,0.4-0.1,0.5-0.1
		C5.6,3,5.7,3,5.6,2.8C5.6,2.7,6,2.6,6,2.6c0.1-0.1,0.3-0.2,0.4-0.3c0.5-0.1,1-0.2,1.6-0.2c2.9,0,5.3,2.1,5.8,4.9
		C13.7,6.8,13.5,6.5,13.4,6.3z"/>
	<path fill="#404040" d="M7.9,2.8L7.9,2.8c-0.1,0,0-0.2-0.2,0c0,0.2-0.2,0.3-0.1,0.4C7.8,3.4,8,3.2,8.2,3.1c0,0.1,0.4,0.1,0.4,0.1
		c-0.1,0,0,0,0,0C9,3,7.9,2.8,7.9,2.8z"/>
	<path fill="#404040" d="M7.6,3.9c0-0.1-0.1-0.1-0.1-0.2c0.1-0.2-0.1-0.1,0-0.3H7.3c0,0.1,0.1,0.1-0.1,0C7.1,3.6,7.3,3.7,7.3,3.8
		l-0.1,0c0,0.1,0,0.1,0,0.2C7,3.9,7.1,3.7,6.9,3.5C7.1,3.3,6.5,3,6.6,2.9C6.2,3,6.9,3.5,6.8,3.6c-0.2-0.1-0.1,0-0.2,0.2
		C6.5,3.9,6.5,4,6.2,3.9c0-0.2,0.5,0,0.2-0.4C6.4,3.3,6.3,3.1,6.1,3.2C5.9,3.3,5.5,3.4,5.4,3.7L4.7,4.3C4.9,4.5,5.9,3.7,6.1,4
		c0,0.2-0.2,0.3-0.2,0.4l0.2,0.1c0.3-0.1,0.2,0.2,0.5,0.2c0.4,0.1,0.1,0,0.3-0.2c0.1-0.1,0.5-0.1,0.5,0.1c0-0.1,0.2,0,0,0
		c0.2,0,0.4,0.2,0.5,0c0.1-0.1,0.2-0.1,0.3,0c0.3,0.3,0.2-0.7,0.2-0.8C8.3,3.9,7.6,3.9,7.6,3.9z M6.1,3.7l-0.1,0
		c0-0.1,0.2-0.5,0.3-0.5C6.2,3.4,6.1,3.6,6.1,3.7z"/>
	<path fill="#404040" d="M9.2,2.8l0.1-0.1c-0.1-0.3-0.3,0-0.3,0.1C9,2.9,9.5,3.2,9.5,3.3c-0.1,0,0,0.3,0.2,0.3
		C9.8,3.7,9.9,3.7,10,3.6C10,3.4,9.4,2.9,9.2,2.8z"/>
	<path fill="#404040" d="M10,2.8c-0.1,0-0.2-0.2-0.3-0.3l0,0.1C9.7,2.7,9.8,3,10,2.8z"/>
	<polygon fill="#404040" points="5.6,3.2 5.5,3.3 5.5,3.3 	"/>
</g>
</svg>
