<svg xmlns="http://www.w3.org/2000/svg" viewBox="0 0 425.2 425.21"><defs><style>.cls-1{fill:#ea0029;}.cls-2{fill:#fff;}.cls-3{fill:#211261;}</style></defs><title>Datový zdroj 1@72x-100</title><g id="Vrstva_2" data-name="Vrstva 2"><g id="Vrstva_1-2" data-name="Vrstva 1"><path class="cls-1" d="M425.2,212.61c0,117.43-95.18,212.6-212.59,212.6S0,330,0,212.61,95.18,0,212.61,0,425.2,95.21,425.2,212.61"/><path class="cls-2" d="M285.59,244.12c.78,18.17-2.88,36.51-12,52.52-8.74,15.31-21.86,27.89-37.13,37.18-19.08,11.62-35.67,16.38-49.81,19.73a199.36,199.36,0,0,1-58.35,4.94l35.33-48.31c1.65-.2,3.93-.42,6.65-.53,3.71-.15,6.41,0,6.87,0,5.64.19,24.59-6.07,47.14-28.2,7.37-7.23,11.14-11,14.22-17.45,3.5-7.34,4.72-15.42,5.57-23.42.27-2.56.13-8.46.12-8.51a0,0,0,0,1,0,0c-.16-1.88-.3-3.76-.54-5.63a105.61,105.61,0,0,0-2.48-12.31c-2.14-8.43-5.63-16.71-5.91-25.41-1.42-43.38,56.8-63,68.12-67.3.9,1.5,1.85,3,2.82,4.43A172.76,172.76,0,0,0,284,143.62a82.42,82.42,0,0,0-9.78,10.95c-1.64,2.26-10.36,14.65-5.3,29.51,2.7,7.94,6.23,15.62,9.18,23.48a132,132,0,0,1,5.28,17.93A109.18,109.18,0,0,1,285.59,244.12Z"/><path class="cls-3" d="M340.89,78.29v4.25c-.05.15-.11.3-.15.45-.28,1.3-.47,2.62-.84,3.89a51.31,51.31,0,0,1-6.71,13.68,141.62,141.62,0,0,1-17.46,21.26c-.83.85-1.69,1.68-2.7,2.68-.3-.37-.51-.69-.77-1a160.52,160.52,0,0,1-15.06-17.13,76.81,76.81,0,0,1-9.52-15.81,24.18,24.18,0,0,1-1.46-16.42c3.69-13.41,17.17-21.63,31.73-19.37,11,1.72,20.14,10,22.35,20.39C340.52,76.24,340.69,77.26,340.89,78.29Zm-9.24,2.4c.15-9.37-8-17.29-18-17.54-10.4-.27-19.11,7.87-19,17.56S302.91,98.17,313,98.17C323.41,98.18,331.65,90.45,331.65,80.69Z"/><path class="cls-3" d="M183.81,230.83v11.85a12.15,12.15,0,0,0-.41,1.25c-.78,3.61-1.31,7.28-2.34,10.83-4,13.69-10.86,26.13-18.7,38.13-14,21.39-30.68,40.77-48.65,59.22-2.31,2.37-4.71,4.67-7.53,7.47a31.54,31.54,0,0,0-2.14-2.66,443,443,0,0,1-42-47.73c-10.4-13.83-19.75-28.22-26.51-44-6.37-14.88-8.4-30.05-4.07-45.76,10.3-37.36,47.83-60.26,88.41-54,30.75,4.78,56.1,27.9,62.26,56.81C182.77,225.11,183.26,228,183.81,230.83Zm-25.74,6.69c.41-26.1-22.3-48.17-50.17-48.88-29-.75-53.26,21.93-53,48.94.21,26.76,23.14,48.65,51.3,48.65C135.12,286.24,158.07,264.71,158.07,237.52Z"/></g></g></svg>