<?xml version="1.0" encoding="utf-8"?>
<!-- Generator: Adobe Illustrator 19.1.0, SVG Export Plug-In . SVG Version: 6.00 Build 0)  -->
<!DOCTYPE svg PUBLIC "-//W3C//DTD SVG 1.1//EN" "http://www.w3.org/Graphics/SVG/1.1/DTD/svg11.dtd">
<svg version="1.1" id="Vrstva_1" xmlns="http://www.w3.org/2000/svg" xmlns:xlink="http://www.w3.org/1999/xlink" x="0px" y="0px"
	 width="16px" height="16px" viewBox="0 0 16 16" enable-background="new 0 0 16 16" xml:space="preserve">
<g>
	<polygon fill="#FFFFFF" points="14.6,4.4 13.6,3.4 8.4,7.7 6,5.9 5,7 7.9,10.4 8.5,11 9,10.4 	"/>
	<rect x="1" y="2" fill="#FFFFFF" width="1" height="2"/>
	<rect x="1" y="6" fill="#FFFFFF" width="1" height="2"/>
	<rect x="1" y="10" fill="#FFFFFF" width="1" height="2"/>
	<rect x="1" y="14" fill="#FFFFFF" width="2" height="1"/>
	<rect x="4" y="2" fill="#FFFFFF" width="2" height="1"/>
	<rect x="8" y="2" fill="#FFFFFF" width="2" height="1"/>
	<rect x="9" y="14" fill="#FFFFFF" width="2" height="1"/>
	<rect x="5" y="14" fill="#FFFFFF" width="2" height="1"/>
	<rect x="13" y="13" fill="#FFFFFF" width="1" height="2"/>
	<rect x="13" y="9" fill="#FFFFFF" width="1" height="2"/>
</g>
</svg>
