<?xml version="1.0" encoding="utf-8"?>
<!-- Generator: Adobe Illustrator 19.1.0, SVG Export Plug-In . SVG Version: 6.00 Build 0)  -->
<!DOCTYPE svg PUBLIC "-//W3C//DTD SVG 1.1//EN" "http://www.w3.org/Graphics/SVG/1.1/DTD/svg11.dtd">
<svg version="1.1" id="Vrstva_1" xmlns="http://www.w3.org/2000/svg" xmlns:xlink="http://www.w3.org/1999/xlink" x="0px" y="0px"
	 width="16px" height="16px" viewBox="0 0 16 16" enable-background="new 0 0 16 16" xml:space="preserve">
<path fill="#404040" d="M13.7,2.3c-3.1-3.1-8.2-3.1-11.3,0c-3.1,3.1-3.1,8.2,0,11.3c3.1,3.1,8.2,3.1,11.3,0
	C16.8,10.5,16.8,5.5,13.7,2.3z M7.6,13.6c-0.8,0-1.5-0.7-1.5-1.5c0-0.8,0.7-1.5,1.5-1.5c0.8,0,1.5,0.7,1.5,1.5
	C9.1,12.9,8.4,13.6,7.6,13.6z M8.7,8.3v0.8c0,0.4-0.2,0.6-0.6,0.6H7c-0.4,0-0.6-0.2-0.6-0.6V7.3c0-0.5,0.5-0.6,0.9-0.7
	c0.1,0,0.2-0.1,0.3-0.1C8.2,6.3,8.6,6,8.6,5.4c0-0.2,0-0.8-1-0.8C7,4.6,6.4,4.9,6.1,5C5.9,5.1,5.8,5.1,5.7,5.1
	C5.6,5.1,5.4,5,5.3,4.8L5,3.8C4.9,3.7,4.9,3.6,4.9,3.5c0-0.7,2.3-1.1,3-1.1c1.9,0,3.2,1.2,3.2,3C11.1,7.4,9.6,8,8.7,8.3z"/>
</svg>
