<svg xmlns="http://www.w3.org/2000/svg" viewBox="0 0 141.73 141.74">
    <defs>
        <style>.cls-1{fill:#2b2867;}</style>
    </defs>
    <g>
        <path class="cls-1" d="M141.73,70.87A70.87,70.87,0,1,1,70.87,0a70.87,70.87,0,0,1,70.86,70.87M96.9,58.61c-3.64.72-8.8,1.92-11.23-1.72a27.44,27.44,0,0,1-3.15-7,10.11,10.11,0,0,0,.15-9.8c-2.76-4.72-8-5.31-12.63-3.29C58.22,41.94,51.4,56.23,48.66,68.33a5.66,5.66,0,0,0-.31,4.6A8.9,8.9,0,0,0,50,76.72c-1.68,11.35-4.84,23.44-11.16,33-4.27,6.43,6.08,12.41,10.31,6,5.72-8.64,9-18.9,11.11-29.23a33.2,33.2,0,0,1,2.55,4c2.74,5.21-3.41,11.59-6.41,15.09-5,5.82,3.43,14.29,8.44,8.44C70.5,107.42,76.86,99.31,75,90c-1.14-5.78-4.8-10.74-8.92-15.24a6.06,6.06,0,0,0,.16-.61c1.39-6.55,3.9-14.22,9-18.78a26.39,26.39,0,0,0,4.34,7.91c4.39,5.13,11,5.16,17.18,4.18l.08,52,2.16.11L99,67l.25-.05c5.49-1.08,3.16-9.45-2.31-8.38m-1-29.32a9.07,9.07,0,1,0-9.06,9.07,9.05,9.05,0,0,0,9.06-9.07"/>
    </g>
</svg>