<svg xmlns="http://www.w3.org/2000/svg" viewBox="0 0 141.73 141.74">
    <defs>
        <style>.cls-1{fill:#2b2867;}</style>
    </defs>
    <g>
        <path class="cls-1" d="M141.73,70.87A70.87,70.87,0,1,1,70.86,0a70.87,70.87,0,0,1,70.87,70.87M57.78,35.37A7.63,7.63,0,1,0,50.15,43a7.63,7.63,0,0,0,7.63-7.64M98.43,62.62c-.54-3.87-2.28-7.45-3.27-11.18,0-.23.06-.45.06-.7a128.18,128.18,0,0,0-1.56-17c-.38-2.75-3.86-4.23-6.28-3.56a4.81,4.81,0,0,0-2.44,1.54,20.07,20.07,0,0,0-6.07-1c-4-.06-4,6.08,0,6.13A12.53,12.53,0,0,1,84,37.92c0,.29.08.59.1.88a4.53,4.53,0,0,0-2,1.68c-3.32,4.94-10.21,3.25-15.35,2.79a7.16,7.16,0,0,0-9.85,10.3c6,7,5.82,18,5.67,28.72,0,1.65,0,3.26,0,4.81a7.16,7.16,0,0,0,2.13,5.1A88.57,88.57,0,0,1,58.3,119c-2.12,5.27,6.4,7.55,8.5,2.35A94.09,94.09,0,0,0,73.44,93.2a7.14,7.14,0,0,0,3.4-6.1c0-1.49,0-3,0-4.6.13-9.34.26-20.42-4-30.09,4.33.08,8.38-.4,11.88-2.57a34.7,34.7,0,0,1-4.12,8.63c-2,3.4,3.28,6.49,5.3,3.1a60.45,60.45,0,0,0,3.24-6,5.4,5.4,0,0,0,1,.08,49.9,49.9,0,0,1,2.34,8.56c.55,3.9,6.47,2.23,5.92-1.62M95,23.36a5.91,5.91,0,1,0-5.9,5.91A5.91,5.91,0,0,0,95,23.36"/>
    </g>
</svg>