<?xml version="1.0" encoding="utf-8"?>
<!-- Generator: Adobe Illustrator 19.1.0, SVG Export Plug-In . SVG Version: 6.00 Build 0)  -->
<!DOCTYPE svg PUBLIC "-//W3C//DTD SVG 1.1//EN" "http://www.w3.org/Graphics/SVG/1.1/DTD/svg11.dtd">
<svg version="1.1" id="Vrstva_1" xmlns="http://www.w3.org/2000/svg" xmlns:xlink="http://www.w3.org/1999/xlink" x="0px" y="0px"
	 width="16px" height="16px" viewBox="0 0 16 16" enable-background="new 0 0 16 16" xml:space="preserve">
<path fill="#E31E25" d="M15.5,14.1l-7-12.3c-0.3-0.5-0.7-0.5-1,0l-7,12.3C0.2,14.6,0.5,15,1,15h14C15.6,15,15.8,14.6,15.5,14.1z
	 M9,12.5C9,12.8,8.8,13,8.5,13h-1C7.2,13,7,12.8,7,12.5v-1C7,11.2,7.2,11,7.5,11h1C8.8,11,9,11.2,9,11.5V12.5z M9,9.5
	C9,9.8,8.8,10,8.5,10h-1C7.2,10,7,9.8,7,9.5v-3C7,6.2,7.2,6,7.5,6h1C8.8,6,9,6.2,9,6.5V9.5z"/>
</svg>
