<svg xmlns="http://www.w3.org/2000/svg" viewBox="0 0 141.73 141.74">
    <defs>
        <style>.cls-1{fill:#2b2867;}</style>
    </defs>
    <g>
        <path class="cls-1" d="M141.73,70.87A70.87,70.87,0,1,1,70.87,0a70.86,70.86,0,0,1,70.86,70.87M68.19,38.42a8.65,8.65,0,1,0-8.64-8.64,8.63,8.63,0,0,0,8.64,8.64m39.38,63.5L92.36,76a6.81,6.81,0,0,0-5.91-3.4H75V69.39H87.31a5.14,5.14,0,0,0,0-10.28H75V49.28a6.85,6.85,0,0,0-13.7,0V79.4a6.85,6.85,0,0,0,6.85,6.86H82.53l13.22,22.58a6.85,6.85,0,0,0,5.93,3.39,6.73,6.73,0,0,0,3.44-.94,6.84,6.84,0,0,0,2.45-9.37M83.11,98a5.14,5.14,0,0,0-6.86,2.39A17.3,17.3,0,1,1,55,76.55a5.14,5.14,0,0,0-3.4-9.71,27.58,27.58,0,1,0,33.94,38A5.14,5.14,0,0,0,83.11,98"/>
    </g>
</svg>