<?xml version="1.0" encoding="utf-8"?>
<!-- Generator: Adobe Illustrator 18.1.1, SVG Export Plug-In . SVG Version: 6.00 Build 0)  -->
<!DOCTYPE svg PUBLIC "-//W3C//DTD SVG 1.1//EN" "http://www.w3.org/Graphics/SVG/1.1/DTD/svg11.dtd">
<svg version="1.1" id="Vrstva_1" xmlns="http://www.w3.org/2000/svg" xmlns:xlink="http://www.w3.org/1999/xlink" x="0px" y="0px"
	 width="36px" height="36px" viewBox="0 0 36 36" enable-background="new 0 0 36 36" xml:space="preserve">
<g>
	<g>
		<path fill="#FFFFFF" d="M27.5,7L7,27.5c-0.2,0.2-0.2,0.5,0,0.7L7.7,29c0.2,0.2,0.5,0.2,0.7,0L29,8.5c0.2-0.2,0.2-0.5,0-0.7L28.3,7
			C28.1,6.8,27.7,6.8,27.5,7z"/>
	</g>
	<g>
		<path fill="#FFFFFF" d="M29,27.5L8.5,7C8.3,6.8,7.9,6.8,7.7,7L7,7.7C6.8,7.9,6.8,8.3,7,8.5L27.5,29c0.2,0.2,0.5,0.2,0.7,0l0.7-0.7
			C29.2,28.1,29.2,27.7,29,27.5z"/>
	</g>
</g>
</svg>
